<svg width="41" height="41" viewBox="0 0 41 41" fill="none" xmlns="http://www.w3.org/2000/svg">
<path d="M16.2913 33.75C11.9851 33.75 8.33251 32.2505 5.33359 29.2516C2.33467 26.2527 0.83448 22.5994 0.833008 18.2917V0.625H32.8538C34.9886 0.625 36.8104 1.37951 38.3195 2.88854C39.8285 4.39757 40.583 6.21944 40.583 8.35417C40.583 10.4889 39.8285 12.3108 38.3195 13.8198C36.8104 15.3288 34.9886 16.0833 32.8538 16.0833H31.7497V18.2917C31.7497 22.5979 30.2502 26.2512 27.2513 29.2516C24.2524 32.252 20.5991 33.7515 16.2913 33.75ZM5.24967 11.6667H27.333V5.04167H5.24967V11.6667ZM31.7497 11.6667H32.8538C33.774 11.6667 34.5565 11.345 35.2013 10.7016C35.8461 10.0583 36.1678 9.27578 36.1663 8.35417C36.1649 7.43256 35.8432 6.65081 35.2013 6.00892C34.5594 5.36703 33.7769 5.04461 32.8538 5.04167H31.7497V11.6667ZM0.833008 40.375V35.9583H36.1663V40.375H0.833008Z" fill="#161616"/>
</svg>
