<svg width="49" height="45" viewBox="0 0 49 45" fill="none" xmlns="http://www.w3.org/2000/svg">
<path d="M35.5419 0.833984C37.9843 0.833984 39.8592 2.69561 41.2482 4.69857L41.7186 5.40744L42.1492 6.11411C42.2861 6.34525 42.4172 6.57197 42.5423 6.79428C44.2803 9.9014 45.793 13.9581 46.7934 17.9662C47.7871 21.9434 48.337 26.0973 47.9859 29.3634C47.6325 32.6428 45.9431 36.1673 42.1669 36.1673C38.7793 36.1673 36.1094 34.3565 33.9409 32.5876L31.4896 30.5317C29.4513 28.8622 27.2209 27.334 24.5002 27.334C21.7796 27.334 19.5469 28.8622 17.5131 30.5317L15.0618 32.5854C12.8888 34.3565 10.2189 36.1673 6.83357 36.1673C3.05511 36.1673 1.36573 32.6428 1.01461 29.3634C0.665691 26.0951 1.21336 21.9434 2.20711 17.9662C3.20748 13.9581 4.72019 9.9014 6.45815 6.79428L6.85123 6.1119L7.28186 5.40744L7.75223 4.69857C9.14127 2.69561 11.0161 0.833984 13.4586 0.833984C14.5848 0.833984 15.7044 1.10782 16.8042 1.43023L18.1137 1.83215C18.3301 1.8984 18.5451 1.96171 18.7586 2.02207C20.6688 2.56973 22.6231 3.04232 24.5002 3.04232C26.3773 3.04232 28.3317 2.56973 30.2419 2.02207L32.1963 1.43244C33.296 1.10782 34.4156 0.833984 35.5419 0.833984ZM16.7711 9.66732C15.3068 9.66732 13.9026 10.249 12.8672 11.2843C11.8319 12.3197 11.2502 13.7239 11.2502 15.1882C11.2502 16.6524 11.8319 18.0566 12.8672 19.092C13.9026 20.1273 15.3068 20.709 16.7711 20.709C18.2353 20.709 19.6395 20.1273 20.6749 19.092C21.7102 18.0566 22.2919 16.6524 22.2919 15.1882C22.2919 13.7239 21.7102 12.3197 20.6749 11.2843C19.6395 10.249 18.2353 9.66732 16.7711 9.66732ZM32.2294 9.66732C31.6437 9.66732 31.082 9.89998 30.6679 10.3141C30.2537 10.7283 30.0211 11.29 30.0211 11.8757V12.9798H28.9169C28.3312 12.9798 27.7695 13.2125 27.3554 13.6266C26.9412 14.0408 26.7086 14.6025 26.7086 15.1882C26.7086 15.7738 26.9412 16.3355 27.3554 16.7497C27.7695 17.1638 28.3312 17.3965 28.9169 17.3965H30.0211V18.5007C30.0211 19.0863 30.2537 19.648 30.6679 20.0622C31.082 20.4763 31.6437 20.709 32.2294 20.709C32.8151 20.709 33.3768 20.4763 33.7909 20.0622C34.2051 19.648 34.4377 19.0863 34.4377 18.5007V17.3965H35.5419C36.1276 17.3965 36.6893 17.1638 37.1034 16.7497C37.5176 16.3355 37.7502 15.7738 37.7502 15.1882C37.7502 14.6025 37.5176 14.0408 37.1034 13.6266C36.6893 13.2125 36.1276 12.9798 35.5419 12.9798H34.4377V11.8757C34.4377 11.29 34.2051 10.7283 33.7909 10.3141C33.3768 9.89998 32.8151 9.66732 32.2294 9.66732ZM16.7711 14.084C17.0639 14.084 17.3448 14.2003 17.5518 14.4074C17.7589 14.6145 17.8752 14.8953 17.8752 15.1882C17.8752 15.481 17.7589 15.7618 17.5518 15.9689C17.3448 16.176 17.0639 16.2923 16.7711 16.2923C16.4782 16.2923 16.1974 16.176 15.9903 15.9689C15.7832 15.7618 15.6669 15.481 15.6669 15.1882C15.6669 14.8953 15.7832 14.6145 15.9903 14.4074C16.1974 14.2003 16.4782 14.084 16.7711 14.084Z" fill="#161616"/>
</svg>
