<svg width="37" height="45" viewBox="0 0 37 45" fill="none" xmlns="http://www.w3.org/2000/svg">
<path d="M18.5007 44.5846C13.3847 43.2964 9.16088 40.3608 5.82924 35.7778C2.4976 31.1948 0.832513 26.1068 0.833985 20.5138V7.04297L18.5007 0.417969L36.1673 7.04297V20.5138C36.1673 26.1082 34.5022 31.197 31.1721 35.78C27.8419 40.363 23.6181 43.2979 18.5007 44.5846ZM18.5007 39.9471C22.0708 38.843 25.052 36.6619 27.4444 33.4038C29.8368 30.1458 31.2354 26.5116 31.6402 22.5013H18.5007V5.11068L5.25065 10.0794V21.5076C5.25065 21.7652 5.28746 22.0964 5.36107 22.5013H18.5007V39.9471Z" fill="#161616"/>
</svg>
